Another Fine Release Brought to you from - ZOMBiES                  
                                               

********************************************************************************

           The Three Musketeers 2011 DVDSCR READNFO XviD - ZOMBiES
                                                            
********************************************************************************


Release Name : The Three Musketeers 2011 DVDSCR READNFO XviD - ZOMBiES
Rating : 6.0/10
Genre : Action, Adventure, Romance
Stars : Logan Lerman, Matthew Macfadyen, Ray Stevenson, Milla Jovovich
Director : Paul W.S. Anderson
Writers : Alex Litvak, Andrew Davies
Release Date : 21 Oct 2011
Movie Runtime : 1 hr 50 mins
Rated Under : PG-13 
http://www.imdb.com/title/tt1509767/

Movie Plot : The hot-headed young D'Artagnan along with three former legendary 
but now down on their luck Musketeers must unite and defeat a beautiful double agent and her villainous employer from seizing the French throne and engulfing Europe in war.


Format                           : AVI
Format/Info                      : Audio Video Interleave
File size                        : 835 MiB
Duration                         : 1h 50mn
Overall bit rate                 : 1 057 Kbps
Writing application              : MEncoder SVN-r33823-4.1.2
Writing library                  : MPlayer

Video
ID                               : 0
Format                           : xvid
Codec ID                         : xvid
Duration                         : 1h 50mn
Bit rate                         : 918 Kbps
Width                            : 720 pixels
Height                           : 304 pixels
Display aspect ratio             : 2.35:1
Frame rate                       : 23.976 fps
Bits/(Pixel*Frame)               : 0.175
Stream size                      : 725 MiB (87%)

Audio
ID                               : 1
Format                           : MPEG Audio
Format version                   : Version 1
Format profile                   : Layer 3
Mode                             : Joint stereo
Mode extension                   : MS Stereo
Codec ID                         : 55
Codec ID/Hint                    : MP3
Duration                         : 1h 50mn
Bit rate mode                    : Constant
Bit rate                         : 128 Kbps
Channel(s)                       : 2 channels
Sampling rate                    : 44.1 KHz
Compression mode                 : Lossy
Stream size                      : 101 MiB (12%)
Alignment                        : Aligned on interleaves
Interleave, duration             : 26 ms (0.63 video frame)
Interleave, preload duration     : 525 ms
Writing library                  : LAME3.98.4
source : The.Three.Musketeers.2011.SCR.DVD.DUAL.ESPAÑOL

READNFO : first , thanks alot T for helping in sync
2nd , we aren't warrlord , we have no idea who the hell is that
if you have a problem with us you can fuck yourself or just keep off our way .

GREETS:

FLAWL3SS,ViSiON,Rx,ELEKTRI4KA,26K,DTRG,3LT0N,RemixHD
And to all the other p2p grps past and present .

Looking for these,syncers,cammers,audio,silver supplier.....Have anything to offer????......
You know how to find us .


Poster:

 
http://i.imgur.com/FTKv7.jpg


Screens:

 
http://i.imgur.com/s8qcr.jpg

 
http://i.imgur.com/kxkBB.jpg

 
http://i.imgur.com/pfctU.jpg


ENJOY!